<svg width="384" height="96" xmlns="http://www.w3.org/2000/svg" xmlns:xlink="http://www.w3.org/1999/xlink" overflow="hidden"><g><rect x="0" y="0" width="384" height="96" fill="#FFFFFF" fill-opacity="0"/><path d="M135 18.0002C135 9.71581 141.716 3 150 3L367 3C375.284 3 382 9.71581 382 18.0002L382 77.9998C382 86.2842 375.284 93 367 93L150 93C141.716 93 135 86.2842 135 77.9998Z" stroke="#2F4266" stroke-width="2" stroke-miterlimit="8" fill="#79A3F2" fill-rule="evenodd"/><text fill="#FFFFFF" font-family="Arial,Arial_MSFontService,sans-serif" font-weight="400" font-size="13" transform="translate(148.768 22)">Estimator</text><path d="M199 37.0003C199 31.4773 203.477 27 209 27L365 27C370.523 27 375 31.4773 375 37.0003L375 76.9997C375 82.5227 370.523 87 365 87L209 87C203.477 87 199 82.5227 199 76.9997Z" stroke="#6C3B18" stroke-width="2" stroke-miterlimit="8" fill="#FF9245" fill-rule="evenodd"/><text fill="#FFFFFF" font-family="Arial,Arial_MSFontService,sans-serif" font-weight="400" font-size="13" transform="translate(211.395 45)">Filter</text><path d="M267 58.1668C267 55.3132 269.313 53 272.167 53L361.833 53C364.687 53 367 55.3132 367 58.1668L367 78.8332C367 81.6868 364.687 84 361.833 84L272.167 84C269.313 84 267 81.6868 267 78.8332Z" stroke="#154952" stroke-width="2" stroke-miterlimit="8" fill="#3FB1C5" fill-rule="evenodd"/><text fill="#FFFFFF" font-family="Arial,Arial_MSFontService,sans-serif" font-weight="400" font-size="13" transform="translate(278.609 69)">Model</text><path d="M0-1 18.8968-1 18.8968 51.4911 16.8968 51.4911 16.8968 0 17.8968 1 0 1ZM21.8968 50.1578 17.8968 58.1578 13.8968 50.1578Z" transform="matrix(-1.83697e-16 -1 -1 1.83697e-16 338.158 63.8968)"/><path d="M0-1 16.9662-1 16.9662 42.4479 14.9662 42.4479 14.9662 0 15.9662 1 0 1ZM19.9662 41.1145 15.9662 49.1145 11.9662 41.1145Z" transform="matrix(1.83697e-16 1 1 -1.83697e-16 253 61)"/><path d="M0-1 22.6725-1 22.6725 36.7102 20.6725 36.7102 20.6725 0 21.6725 1 0 1ZM25.6725 35.3769 21.6725 43.3769 17.6725 35.3769Z" transform="matrix(1.83697e-16 1 1 -1.83697e-16 178 33)"/><path d="M0-1 24.3373-1 24.3373 102.219 22.3373 102.219 22.3373 0 23.3373 1 0 1ZM27.3373 100.885 23.3373 108.885 19.3373 100.885Z" transform="matrix(-1.83697e-16 -1 -1 1.83697e-16 352.885 42.3374)"/><path d="M2 10.8335C2 6.50718 5.50717 3 9.83349 3L76.1665 3C80.4928 3 84 6.50718 84 10.8335L84 42.1665C84 46.4928 80.4928 50 76.1665 50L9.83349 50C5.50717 50 2 46.4928 2 42.1665Z" stroke="#154952" stroke-width="2" stroke-miterlimit="8" fill="#3FB1C5" fill-rule="evenodd"/><text fill="#FFFFFF" font-family="Arial,Arial_MSFontService,sans-serif" font-weight="400" font-size="13" transform="translate(21.7546 22)">Battery</text><text fill="#FFFFFF" font-family="Arial,Arial_MSFontService,sans-serif" font-weight="400" font-size="13" transform="translate(28.7546 38)">Data</text><text font-family="Cambria Math,Cambria Math_MSFontService,sans-serif" font-weight="400" font-size="11" transform="translate(141.168 46)">(</text><text font-family="Cambria Math,Cambria Math_MSFontService,sans-serif" font-weight="400" font-size="11" transform="translate(145.668 46)">ğ‘¢</text><text font-family="Cambria Math,Cambria Math_MSFontService,sans-serif" font-weight="400" font-size="8" transform="translate(151.835 48)">ğ‘–</text><text font-family="Cambria Math,Cambria Math_MSFontService,sans-serif" font-weight="400" font-size="11" transform="translate(155.208 46)">,</text><text font-family="Cambria Math,Cambria Math_MSFontService,sans-serif" font-weight="400" font-size="11" transform="translate(159.155 46)">ğ‘¦</text><text font-family="Cambria Math,Cambria Math_MSFontService,sans-serif" font-weight="400" font-size="8" transform="translate(164.835 48)">i</text><text font-family="Cambria Math,Cambria Math_MSFontService,sans-serif" font-weight="400" font-size="11" transform="translate(167.775 46)">)</text><text font-family="Cambria Math,Cambria Math_MSFontService,sans-serif" font-weight="400" font-size="11" transform="translate(279.414 14)">(</text><text font-family="Cambria Math,Cambria Math_MSFontService,sans-serif" font-weight="400" font-size="11" transform="translate(283.914 14)">ğ»</text><text font-family="Cambria Math,Cambria Math_MSFontService,sans-serif" font-weight="400" font-size="8" transform="translate(291.121 16)">ğ‘–</text><text font-family="Cambria Math,Cambria Math_MSFontService,sans-serif" font-weight="400" font-size="11" transform="translate(294.494 14)">,</text><text font-family="Cambria Math,Cambria Math_MSFontService,sans-serif" font-weight="400" font-size="11" transform="translate(298.441 14)">ğ‘Œ</text><text font-family="Cambria Math,Cambria Math_MSFontService,sans-serif" font-weight="400" font-size="8" transform="translate(303.194 16)">ğ‘–</text><text font-family="Cambria Math,Cambria Math_MSFontService,sans-serif" font-weight="400" font-size="11" transform="translate(306.567 14)">)</text><text font-family="Cambria Math,Cambria Math_MSFontService,sans-serif" font-weight="400" font-size="11" transform="translate(294.42 38)">(</text><text font-family="Cambria Math,Cambria Math_MSFontService,sans-serif" font-weight="400" font-size="11" transform="translate(298.92 38)">â„</text><text font-family="Cambria Math,Cambria Math_MSFontService,sans-serif" font-weight="400" font-size="8" transform="translate(304.92 41)">ğ‘–</text><text font-family="Cambria Math,Cambria Math_MSFontService,sans-serif" font-weight="400" font-size="11" transform="translate(308.294 38)">,</text><text font-family="Cambria Math,Cambria Math_MSFontService,sans-serif" font-weight="400" font-size="11" transform="translate(312.24 38)">ğ‘¦</text><text font-family="Cambria Math,Cambria Math_MSFontService,sans-serif" font-weight="400" font-size="8" transform="translate(317.92 41)">ğ‘–</text><text font-family="Cambria Math,Cambria Math_MSFontService,sans-serif" font-weight="400" font-size="11" transform="translate(321.294 38)">)</text><text font-family="Cambria Math,Cambria Math_MSFontService,sans-serif" font-weight="400" font-size="11" transform="translate(207.674 72)">(</text><text font-family="Cambria Math,Cambria Math_MSFontService,sans-serif" font-weight="400" font-size="11" transform="translate(212.174 72)">ğ‘¢</text><text font-family="Cambria Math,Cambria Math_MSFontService,sans-serif" font-weight="400" font-size="8" transform="translate(218.341 74)">ğ‘–</text><text font-family="Cambria Math,Cambria Math_MSFontService,sans-serif" font-weight="400" font-size="11" transform="translate(221.714 72)">,</text><text font-family="Cambria Math,Cambria Math_MSFontService,sans-serif" font-weight="400" font-size="11" transform="translate(225.661 72)">â„</text><text font-family="Cambria Math,Cambria Math_MSFontService,sans-serif" font-weight="400" font-size="8" transform="translate(231.661 74)">ğ‘–</text><text font-family="Cambria Math,Cambria Math_MSFontService,sans-serif" font-weight="400" font-size="8" transform="translate(234.594 74)">âˆ’</text><text font-family="Cambria Math,Cambria Math_MSFontService,sans-serif" font-weight="400" font-size="8" transform="translate(240.261 74)">1</text><text font-family="Cambria Math,Cambria Math_MSFontService,sans-serif" font-weight="400" font-size="11" transform="translate(245.201 72)">)</text><path d="M90 26 121.733 26.0001 121.733 28.0001 90 28ZM120.4 23.0001 128.4 27.0001 120.4 31.0001Z"/><text font-family="Arial,Arial_MSFontService,sans-serif" font-weight="400" font-size="11" transform="translate(90.2403 18)">(</text><text font-family="Arial,Arial_MSFontService,sans-serif" font-weight="400" font-size="11" transform="translate(93.7403 18)">I</text><text font-family="Arial,Arial_MSFontService,sans-serif" font-weight="400" font-size="7" transform="translate(96.7403 20)">i</text><text font-family="Arial,Arial_MSFontService,sans-serif" font-weight="400" font-size="11" transform="translate(98.2403 18)">,V</text><text font-family="Arial,Arial_MSFontService,sans-serif" font-weight="400" font-size="7" transform="translate(108.407 20)">i</text><text font-family="Arial,Arial_MSFontService,sans-serif" font-weight="400" font-size="11" transform="translate(109.907 18)">)</text><text font-family="Arial,Arial_MSFontService,sans-serif" font-weight="400" font-size="11" transform="translate(48.6782 67)">(</text><text font-family="Arial,Arial_MSFontService,sans-serif" font-weight="400" font-size="11" transform="translate(52.1782 67)">SOC</text><text font-family="Arial,Arial_MSFontService,sans-serif" font-weight="400" font-size="7" transform="translate(75.3449 69)">i</text><text font-family="Arial,Arial_MSFontService,sans-serif" font-weight="400" font-size="11" transform="translate(76.8449 67)">,</text><text font-family="Arial,Arial_MSFontService,sans-serif" font-weight="400" font-size="11" transform="translate(82.8449 67)">ASOH</text><text font-family="Arial,Arial_MSFontService,sans-serif" font-weight="400" font-size="7" transform="translate(113.178 69)">i</text><text font-family="Arial,Arial_MSFontService,sans-serif" font-weight="400" font-size="11" transform="translate(114.678 67)">)</text><path d="M1.09361e-06-1 89.3334-0.999902 89.3334 1.0001-1.09361e-06 1ZM88-3.9999 96 0.000104987 88 4.0001Z" transform="matrix(-1 0 0 1 130 74)"/></g></svg>