<svg width="384" height="96" xmlns="http://www.w3.org/2000/svg" xmlns:xlink="http://www.w3.org/1999/xlink" overflow="hidden"><g><rect x="0" y="0" width="384" height="96" fill="#FFFFFF" fill-opacity="0"/><path d="M90 18.5004C90 11.0443 96.0443 5 103.5 5L366.5 5C373.956 5 380 11.0443 380 18.5004L380 72.4996C380 79.9557 373.956 86 366.5 86L103.5 86C96.0443 86 90 79.9557 90 72.4996Z" stroke="#2F4266" stroke-width="2" stroke-miterlimit="8" fill="#79A3F2" fill-rule="evenodd"/><text fill="#FFFFFF" font-family="Arial,Arial_MSFontService,sans-serif" font-weight="400" font-size="13" transform="translate(103.716 24)">Estimator</text><path d="M194 21.167C194 14.4474 199.447 9 206.167 9L363.833 9C370.553 9 376 14.4474 376 21.167L376 69.833C376 76.5527 370.553 82 363.833 82L206.167 82C199.447 82 194 76.5527 194 69.833Z" stroke="#6C3B18" stroke-width="2" stroke-miterlimit="8" fill="#FF9245" fill-rule="evenodd"/><text fill="#FFFFFF" font-family="Arial,Arial_MSFontService,sans-serif" font-weight="400" font-size="13" transform="translate(207.161 70)">Objective</text><path d="M291 16.0001C291 13.7909 292.791 12 295 12L364 12C366.209 12 368 13.7909 368 16.0001L368 31.9999C368 34.2091 366.209 36 364 36L295 36C292.791 36 291 34.2091 291 31.9999Z" stroke="#154952" stroke-width="2" stroke-miterlimit="8" fill="#3FB1C5" fill-rule="evenodd"/><text fill="#FFFFFF" font-family="Arial,Arial_MSFontService,sans-serif" font-weight="400" font-size="13" transform="translate(311.458 28)">Model</text><path d="M207 16.0001C207 13.7909 208.791 12 211 12L280 12C282.209 12 284 13.7909 284 16.0001L284 31.9999C284 34.2091 282.209 36 280 36L211 36C208.791 36 207 34.2091 207 31.9999Z" stroke="#154952" stroke-width="2" stroke-miterlimit="8" fill="#3FB1C5" fill-rule="evenodd"/><text fill="#FFFFFF" font-family="Arial,Arial_MSFontService,sans-serif" font-weight="400" font-size="13" transform="translate(231.538 28)">Data</text><text font-family="Cambria Math,Cambria Math_MSFontService,sans-serif" font-weight="400" font-size="11" transform="translate(339.529 49)">(</text><text font-family="Cambria Math,Cambria Math_MSFontService,sans-serif" font-weight="400" font-size="11" transform="translate(344.029 49)">ℎ</text><text font-family="Cambria Math,Cambria Math_MSFontService,sans-serif" font-weight="400" font-size="8" transform="translate(350.029 51)">𝑖</text><text font-family="Cambria Math,Cambria Math_MSFontService,sans-serif" font-weight="400" font-size="11" transform="translate(353.403 49)">,</text><text font-family="Cambria Math,Cambria Math_MSFontService,sans-serif" font-weight="400" font-size="11" transform="translate(357.349 49)">𝑦</text><text font-family="Cambria Math,Cambria Math_MSFontService,sans-serif" font-weight="400" font-size="8" transform="translate(363.029 52)">𝑖</text><text font-family="Cambria Math,Cambria Math_MSFontService,sans-serif" font-weight="400" font-size="8" transform="translate(363.869 45)">′</text><text font-family="Cambria Math,Cambria Math_MSFontService,sans-serif" font-weight="400" font-size="11" transform="translate(367.143 49)">)</text><text font-family="Cambria Math,Cambria Math_MSFontService,sans-serif" font-weight="400" font-size="11" transform="translate(215.922 49)">(</text><text font-family="Cambria Math,Cambria Math_MSFontService,sans-serif" font-weight="400" font-size="11" transform="translate(220.422 49)">𝑢</text><text font-family="Cambria Math,Cambria Math_MSFontService,sans-serif" font-weight="400" font-size="8" transform="translate(226.588 51)">𝑖</text><text font-family="Cambria Math,Cambria Math_MSFontService,sans-serif" font-weight="400" font-size="11" transform="translate(229.962 49)">,</text><text font-family="Cambria Math,Cambria Math_MSFontService,sans-serif" font-weight="400" font-size="11" transform="translate(233.908 49)">𝑦</text><text font-family="Cambria Math,Cambria Math_MSFontService,sans-serif" font-weight="400" font-size="8" transform="translate(239.588 51)">𝑖</text><text font-family="Cambria Math,Cambria Math_MSFontService,sans-serif" font-weight="400" font-size="11" transform="translate(242.962 49)">)</text><text font-family="Cambria Math,Cambria Math_MSFontService,sans-serif" font-weight="400" font-size="11" transform="translate(266.041 49)">(</text><text font-family="Cambria Math,Cambria Math_MSFontService,sans-serif" font-weight="400" font-size="11" transform="translate(270.541 49)">𝑢</text><text font-family="Cambria Math,Cambria Math_MSFontService,sans-serif" font-weight="400" font-size="8" transform="translate(276.708 51)">𝑖</text><text font-family="Cambria Math,Cambria Math_MSFontService,sans-serif" font-weight="400" font-size="11" transform="translate(280.081 49)">,</text><text font-family="Cambria Math,Cambria Math_MSFontService,sans-serif" font-weight="400" font-size="11" transform="translate(284.028 49)">ℎ</text><text font-family="Cambria Math,Cambria Math_MSFontService,sans-serif" font-weight="400" font-size="8" transform="translate(290.028 51)">𝑖</text><text font-family="Cambria Math,Cambria Math_MSFontService,sans-serif" font-weight="400" font-size="8" transform="translate(292.961 51)">−</text><text font-family="Cambria Math,Cambria Math_MSFontService,sans-serif" font-weight="400" font-size="8" transform="translate(298.628 51)">1</text><text font-family="Cambria Math,Cambria Math_MSFontService,sans-serif" font-weight="400" font-size="11" transform="translate(303.568 49)">;</text><text font-family="Cambria Math,Cambria Math_MSFontService,sans-serif" font-weight="400" font-size="11" transform="translate(308.181 49)">𝜃</text><text font-family="Cambria Math,Cambria Math_MSFontService,sans-serif" font-weight="400" font-size="11" transform="translate(314.494 49)">)</text><path d="M1.5623e-06-1 60.5333-0.999905 60.5333 1.00009-1.5623e-06 1ZM59.2-3.99991 67.2 0.000104987 59.2 4.00009Z" transform="matrix(-1 0 0 1 206.2 52)"/><text font-family="Arial,Arial_MSFontService,sans-serif" font-weight="400" font-size="11" transform="translate(16.7318 75)">(</text><text font-family="Arial,Arial_MSFontService,sans-serif" font-weight="400" font-size="11" transform="translate(20.2318 75)">SOC</text><text font-family="Arial,Arial_MSFontService,sans-serif" font-weight="400" font-size="7" transform="translate(43.3984 77)">0</text><text font-family="Arial,Arial_MSFontService,sans-serif" font-weight="400" font-size="11" transform="translate(47.3984 75)">,</text><text font-family="Arial,Arial_MSFontService,sans-serif" font-weight="400" font-size="11" transform="translate(53.3984 75)">ASOH)</text><path d="M1.15054e-06-1 84.5833-0.999903 84.5833 1.0001-1.15054e-06 1ZM83.25-3.9999 91.25 0.000104987 83.25 4.0001Z" transform="matrix(-1 0 0 1 99.25 62)"/><path d="M335 32 335 53.6062 333 53.6062 333 32ZM338 52.2728 334 60.2729 330 52.2729Z"/><path d="M253 33 253 54.6062 251 54.6062 251 33ZM256 53.2728 252 61.2729 248 53.2729Z"/><path d="M1-3.71334e-06 1.00008 21.6062-0.99992 21.6062-1 3.71334e-06ZM4.00008 20.2728 0.000104987 28.2729-3.99992 20.2729Z" transform="matrix(1 0 0 -1 324 60.2729)"/><text font-family="Cambria Math,Cambria Math_MSFontService,sans-serif" font-weight="400" font-size="11" transform="translate(156.778 36)">(</text><text font-family="Cambria Math,Cambria Math_MSFontService,sans-serif" font-weight="400" font-size="11" transform="translate(161.278 36)">ℎ</text><text font-family="Cambria Math,Cambria Math_MSFontService,sans-serif" font-weight="400" font-size="8" transform="translate(167.278 38)">0</text><text font-family="Cambria Math,Cambria Math_MSFontService,sans-serif" font-weight="400" font-size="11" transform="translate(172.218 36)">;</text><text font-family="Cambria Math,Cambria Math_MSFontService,sans-serif" font-weight="400" font-size="11" transform="translate(176.831 36)">𝜃</text><text font-family="Cambria Math,Cambria Math_MSFontService,sans-serif" font-weight="400" font-size="11" transform="translate(183.145 36)">)</text><text font-family="Cambria Math,Cambria Math_MSFontService,sans-serif" font-weight="400" font-size="11" transform="translate(154.804 64)">𝐿</text><text font-family="Cambria Math,Cambria Math_MSFontService,sans-serif" font-weight="400" font-size="11" transform="translate(160.69 64)">(</text><text font-family="Cambria Math,Cambria Math_MSFontService,sans-serif" font-weight="400" font-size="11" transform="translate(165.19 64)">𝑦</text><text font-family="Cambria Math,Cambria Math_MSFontService,sans-serif" font-weight="400" font-size="11" transform="translate(171.37 64)">,</text><text font-family="Cambria Math,Cambria Math_MSFontService,sans-serif" font-weight="400" font-size="11" transform="translate(175.317 64)">𝑦</text><text font-family="Cambria Math,Cambria Math_MSFontService,sans-serif" font-weight="400" font-size="8" transform="translate(181.837 60)">′</text><text font-family="Cambria Math,Cambria Math_MSFontService,sans-serif" font-weight="400" font-size="11" transform="translate(185.11 64)">)</text><path d="M139 43 199.533 43.0001 199.533 45.0001 139 45ZM198.2 40.0001 206.2 44.0001 198.2 48.0001Z"/></g></svg>